<svg width="40" height="40" viewBox="0 0 40 40" fill="none" xmlns="http://www.w3.org/2000/svg">
<path d="M11.6667 30C9.82501 30 8.35001 31.4916 8.35001 33.3333C8.35001 35.175 9.82501 36.6666 11.6667 36.6666C13.5083 36.6666 15 35.175 15 33.3333C15 31.4916 13.5083 30 11.6667 30ZM1.66667 3.33331V6.66665H5.00001L10.9917 19.3083L8.74167 23.3916C8.48334 23.875 8.33334 24.4166 8.33334 25C8.33334 26.8416 9.82501 28.3333 11.6667 28.3333H31.6667V25H12.375C12.1417 25 11.9583 24.8166 11.9583 24.5833C11.9583 24.5083 11.975 24.4416 12.0083 24.3833L13.5 21.6666H25.9167C27.1667 21.6666 28.2583 20.975 28.8333 19.95L34.7917 9.13331C34.925 8.89998 35 8.62498 35 8.33331C35 7.40831 34.25 6.66665 33.3333 6.66665H8.69167L7.10834 3.33331H1.66667ZM28.3333 30C26.4917 30 25.0167 31.4916 25.0167 33.3333C25.0167 35.175 26.4917 36.6666 28.3333 36.6666C30.175 36.6666 31.6667 35.175 31.6667 33.3333C31.6667 31.4916 30.175 30 28.3333 30Z" fill="#CFD1D0"/>
</svg>
